<svg width="1920" height="1045" viewBox="0 0 1920 1045" fill="none" xmlns="http://www.w3.org/2000/svg">
<g clip-path="url(#clip0_1_65)">
<rect width="1920" height="1045" fill="#FCFCFB"/>
<ellipse cx="119" cy="112" rx="298" ry="286" fill="#F7F6F3"/>
<ellipse cx="1787.5" cy="811" rx="258.5" ry="267" fill="#F7F6F3"/>
<path d="M623.5 892.5C623.5 979.057 555.853 1047.5 474.5 1047.5C393.147 1047.5 325.5 979.057 325.5 892.5C325.5 805.943 393.147 737.5 474.5 737.5C555.853 737.5 623.5 805.943 623.5 892.5Z" stroke="#F7F6F3" stroke-width="61"/>
<path d="M719.5 248.5C719.5 288.041 685.49 322.5 640.5 322.5C595.51 322.5 561.5 288.041 561.5 248.5C561.5 208.959 595.51 174.5 640.5 174.5C685.49 174.5 719.5 208.959 719.5 248.5Z" fill="#F7F6F3" stroke="#F7F6F3" stroke-width="61"/>
<path d="M1599.5 170.5C1599.5 281.201 1508.7 371.5 1396 371.5C1283.3 371.5 1192.5 281.201 1192.5 170.5C1192.5 59.7988 1283.3 -30.5 1396 -30.5C1508.7 -30.5 1599.5 59.7988 1599.5 170.5Z" stroke="#F7F6F3" stroke-width="61"/>
</g>
<defs>
<clipPath id="clip0_1_65">
<rect width="1920" height="1045" fill="white"/>
</clipPath>
</defs>
</svg>
